<mxfile host="app.diagrams.net" agent="Mozilla/5.0 (Windows NT 10.0; Win64; x64) AppleWebKit/537.36 (KHTML, like Gecko) Chrome/131.0.0.0 Safari/537.36" version="25.0.3">
  <diagram name="Page-1" id="VSWz2apI-_SrJ0ygLZlK">
    <mxGraphModel dx="2643" dy="933" grid="1" gridSize="10" guides="1" tooltips="1" connect="1" arrows="1" fold="1" page="1" pageScale="1" pageWidth="850" pageHeight="1100" math="0" shadow="0">
      <root>
        <mxCell id="0" />
        <mxCell id="1" parent="0" />
        <mxCell id="FLgsJ0YSuYzED8wDsR7t-1" value="&lt;font style=&quot;font-size: 24px;&quot;&gt;start&lt;/font&gt;" style="strokeWidth=2;html=1;shape=mxgraph.flowchart.start_1;whiteSpace=wrap;" vertex="1" parent="1">
          <mxGeometry x="-700" y="60" width="100" height="60" as="geometry" />
        </mxCell>
        <mxCell id="FLgsJ0YSuYzED8wDsR7t-2" value="&lt;font style=&quot;font-size: 24px;&quot;&gt;end&lt;/font&gt;" style="strokeWidth=2;html=1;shape=mxgraph.flowchart.start_1;whiteSpace=wrap;" vertex="1" parent="1">
          <mxGeometry x="-700" y="750" width="100" height="60" as="geometry" />
        </mxCell>
        <mxCell id="FLgsJ0YSuYzED8wDsR7t-16" style="edgeStyle=orthogonalEdgeStyle;rounded=0;orthogonalLoop=1;jettySize=auto;html=1;entryX=0.5;entryY=0;entryDx=0;entryDy=0;" edge="1" parent="1" source="FLgsJ0YSuYzED8wDsR7t-3" target="FLgsJ0YSuYzED8wDsR7t-14">
          <mxGeometry relative="1" as="geometry" />
        </mxCell>
        <mxCell id="FLgsJ0YSuYzED8wDsR7t-3" value="output&lt;div&gt;&quot;Max Height = &quot;, maxHeight&lt;/div&gt;" style="shape=parallelogram;perimeter=parallelogramPerimeter;whiteSpace=wrap;html=1;fixedSize=1;" vertex="1" parent="1">
          <mxGeometry x="-750" y="570" width="200" height="40" as="geometry" />
        </mxCell>
        <mxCell id="FLgsJ0YSuYzED8wDsR7t-10" style="edgeStyle=orthogonalEdgeStyle;rounded=0;orthogonalLoop=1;jettySize=auto;html=1;entryX=0.5;entryY=0;entryDx=0;entryDy=0;" edge="1" parent="1" source="FLgsJ0YSuYzED8wDsR7t-4" target="FLgsJ0YSuYzED8wDsR7t-6">
          <mxGeometry relative="1" as="geometry" />
        </mxCell>
        <mxCell id="FLgsJ0YSuYzED8wDsR7t-4" value="Height[10] = {159, 168, 191, 188, 154, 152, 167, 165, 178, 177}" style="rounded=1;whiteSpace=wrap;html=1;absoluteArcSize=1;arcSize=14;strokeWidth=2;" vertex="1" parent="1">
          <mxGeometry x="-740" y="170" width="180" height="40" as="geometry" />
        </mxCell>
        <mxCell id="FLgsJ0YSuYzED8wDsR7t-26" style="edgeStyle=orthogonalEdgeStyle;rounded=0;orthogonalLoop=1;jettySize=auto;html=1;entryX=0.5;entryY=0;entryDx=0;entryDy=0;" edge="1" parent="1" source="FLgsJ0YSuYzED8wDsR7t-5" target="FLgsJ0YSuYzED8wDsR7t-22">
          <mxGeometry relative="1" as="geometry" />
        </mxCell>
        <mxCell id="FLgsJ0YSuYzED8wDsR7t-5" value="for ( i = 1, i &amp;lt; size, i++)" style="rhombus;whiteSpace=wrap;html=1;" vertex="1" parent="1">
          <mxGeometry x="-397.5" y="280" width="175" height="90" as="geometry" />
        </mxCell>
        <mxCell id="FLgsJ0YSuYzED8wDsR7t-11" style="edgeStyle=orthogonalEdgeStyle;rounded=0;orthogonalLoop=1;jettySize=auto;html=1;entryX=0.5;entryY=0;entryDx=0;entryDy=0;" edge="1" parent="1" source="FLgsJ0YSuYzED8wDsR7t-6" target="FLgsJ0YSuYzED8wDsR7t-7">
          <mxGeometry relative="1" as="geometry" />
        </mxCell>
        <mxCell id="FLgsJ0YSuYzED8wDsR7t-6" value="Age[10] = {18, 19, 18, 17, 16, 18, 17, 18, 18, 18}" style="rounded=1;whiteSpace=wrap;html=1;absoluteArcSize=1;arcSize=14;strokeWidth=2;" vertex="1" parent="1">
          <mxGeometry x="-740" y="270" width="180" height="40" as="geometry" />
        </mxCell>
        <mxCell id="FLgsJ0YSuYzED8wDsR7t-12" style="edgeStyle=orthogonalEdgeStyle;rounded=0;orthogonalLoop=1;jettySize=auto;html=1;entryX=0.5;entryY=0;entryDx=0;entryDy=0;" edge="1" parent="1" source="FLgsJ0YSuYzED8wDsR7t-7" target="FLgsJ0YSuYzED8wDsR7t-8">
          <mxGeometry relative="1" as="geometry" />
        </mxCell>
        <mxCell id="FLgsJ0YSuYzED8wDsR7t-7" value="maxHeight = findMaxHeight(Height, 10)" style="rounded=1;whiteSpace=wrap;html=1;absoluteArcSize=1;arcSize=14;strokeWidth=2;" vertex="1" parent="1">
          <mxGeometry x="-740" y="370" width="180" height="40" as="geometry" />
        </mxCell>
        <mxCell id="FLgsJ0YSuYzED8wDsR7t-15" style="edgeStyle=orthogonalEdgeStyle;rounded=0;orthogonalLoop=1;jettySize=auto;html=1;entryX=0.5;entryY=0;entryDx=0;entryDy=0;" edge="1" parent="1" source="FLgsJ0YSuYzED8wDsR7t-8" target="FLgsJ0YSuYzED8wDsR7t-3">
          <mxGeometry relative="1" as="geometry" />
        </mxCell>
        <mxCell id="FLgsJ0YSuYzED8wDsR7t-8" value="findMaxAge(Age, 10, maxAge)" style="verticalLabelPosition=bottom;verticalAlign=top;html=1;shape=process;whiteSpace=wrap;rounded=1;size=0.14;arcSize=6;" vertex="1" parent="1">
          <mxGeometry x="-718" y="470" width="136" height="30" as="geometry" />
        </mxCell>
        <mxCell id="FLgsJ0YSuYzED8wDsR7t-9" style="edgeStyle=orthogonalEdgeStyle;rounded=0;orthogonalLoop=1;jettySize=auto;html=1;entryX=0.5;entryY=0;entryDx=0;entryDy=0;" edge="1" parent="1" source="FLgsJ0YSuYzED8wDsR7t-1" target="FLgsJ0YSuYzED8wDsR7t-4">
          <mxGeometry relative="1" as="geometry" />
        </mxCell>
        <mxCell id="FLgsJ0YSuYzED8wDsR7t-14" value="output&lt;div&gt;&quot;Max Age = &quot;, maxAge&lt;/div&gt;" style="shape=parallelogram;perimeter=parallelogramPerimeter;whiteSpace=wrap;html=1;fixedSize=1;" vertex="1" parent="1">
          <mxGeometry x="-750" y="660" width="200" height="40" as="geometry" />
        </mxCell>
        <mxCell id="FLgsJ0YSuYzED8wDsR7t-17" style="edgeStyle=orthogonalEdgeStyle;rounded=0;orthogonalLoop=1;jettySize=auto;html=1;entryX=0.5;entryY=0;entryDx=0;entryDy=0;entryPerimeter=0;" edge="1" parent="1" source="FLgsJ0YSuYzED8wDsR7t-14" target="FLgsJ0YSuYzED8wDsR7t-2">
          <mxGeometry relative="1" as="geometry" />
        </mxCell>
        <mxCell id="FLgsJ0YSuYzED8wDsR7t-20" style="edgeStyle=orthogonalEdgeStyle;rounded=0;orthogonalLoop=1;jettySize=auto;html=1;entryX=0.5;entryY=0;entryDx=0;entryDy=0;" edge="1" parent="1" source="FLgsJ0YSuYzED8wDsR7t-18" target="FLgsJ0YSuYzED8wDsR7t-19">
          <mxGeometry relative="1" as="geometry" />
        </mxCell>
        <mxCell id="FLgsJ0YSuYzED8wDsR7t-18" value="findMaxHeight(height, size)" style="strokeWidth=2;html=1;shape=mxgraph.flowchart.start_1;whiteSpace=wrap;" vertex="1" parent="1">
          <mxGeometry x="-395" y="70" width="170" height="50" as="geometry" />
        </mxCell>
        <mxCell id="FLgsJ0YSuYzED8wDsR7t-21" style="edgeStyle=orthogonalEdgeStyle;rounded=0;orthogonalLoop=1;jettySize=auto;html=1;" edge="1" parent="1" source="FLgsJ0YSuYzED8wDsR7t-19" target="FLgsJ0YSuYzED8wDsR7t-5">
          <mxGeometry relative="1" as="geometry" />
        </mxCell>
        <mxCell id="FLgsJ0YSuYzED8wDsR7t-19" value="max = height[0]" style="rounded=1;whiteSpace=wrap;html=1;absoluteArcSize=1;arcSize=14;strokeWidth=2;" vertex="1" parent="1">
          <mxGeometry x="-400" y="180" width="180" height="40" as="geometry" />
        </mxCell>
        <mxCell id="FLgsJ0YSuYzED8wDsR7t-27" style="edgeStyle=orthogonalEdgeStyle;rounded=0;orthogonalLoop=1;jettySize=auto;html=1;entryX=0.5;entryY=0;entryDx=0;entryDy=0;" edge="1" parent="1" source="FLgsJ0YSuYzED8wDsR7t-22" target="FLgsJ0YSuYzED8wDsR7t-23">
          <mxGeometry relative="1" as="geometry" />
        </mxCell>
        <mxCell id="FLgsJ0YSuYzED8wDsR7t-22" value="if (height[i] &amp;gt; max)" style="rhombus;whiteSpace=wrap;html=1;" vertex="1" parent="1">
          <mxGeometry x="-200" y="360" width="175" height="90" as="geometry" />
        </mxCell>
        <mxCell id="FLgsJ0YSuYzED8wDsR7t-28" style="edgeStyle=orthogonalEdgeStyle;rounded=0;orthogonalLoop=1;jettySize=auto;html=1;entryX=1;entryY=1;entryDx=0;entryDy=0;" edge="1" parent="1" source="FLgsJ0YSuYzED8wDsR7t-23" target="FLgsJ0YSuYzED8wDsR7t-5">
          <mxGeometry relative="1" as="geometry" />
        </mxCell>
        <mxCell id="FLgsJ0YSuYzED8wDsR7t-23" value="max = height[i]" style="rounded=1;whiteSpace=wrap;html=1;absoluteArcSize=1;arcSize=14;strokeWidth=2;" vertex="1" parent="1">
          <mxGeometry x="-202.5" y="500" width="180" height="40" as="geometry" />
        </mxCell>
        <mxCell id="FLgsJ0YSuYzED8wDsR7t-25" value="return max" style="strokeWidth=2;html=1;shape=mxgraph.flowchart.start_1;whiteSpace=wrap;" vertex="1" parent="1">
          <mxGeometry x="-365" y="610" width="110" height="40" as="geometry" />
        </mxCell>
        <mxCell id="FLgsJ0YSuYzED8wDsR7t-29" style="edgeStyle=orthogonalEdgeStyle;rounded=0;orthogonalLoop=1;jettySize=auto;html=1;entryX=0.5;entryY=0;entryDx=0;entryDy=0;entryPerimeter=0;" edge="1" parent="1" source="FLgsJ0YSuYzED8wDsR7t-5" target="FLgsJ0YSuYzED8wDsR7t-25">
          <mxGeometry relative="1" as="geometry" />
        </mxCell>
        <mxCell id="FLgsJ0YSuYzED8wDsR7t-34" style="edgeStyle=orthogonalEdgeStyle;rounded=0;orthogonalLoop=1;jettySize=auto;html=1;entryX=0.5;entryY=0;entryDx=0;entryDy=0;" edge="1" parent="1" source="FLgsJ0YSuYzED8wDsR7t-30" target="FLgsJ0YSuYzED8wDsR7t-31">
          <mxGeometry relative="1" as="geometry" />
        </mxCell>
        <mxCell id="FLgsJ0YSuYzED8wDsR7t-30" value="findMaxHeight(age, size, *maxAge)" style="strokeWidth=2;html=1;shape=mxgraph.flowchart.start_1;whiteSpace=wrap;" vertex="1" parent="1">
          <mxGeometry x="40" y="70" width="170" height="50" as="geometry" />
        </mxCell>
        <mxCell id="FLgsJ0YSuYzED8wDsR7t-35" style="edgeStyle=orthogonalEdgeStyle;rounded=0;orthogonalLoop=1;jettySize=auto;html=1;entryX=0.5;entryY=0;entryDx=0;entryDy=0;" edge="1" parent="1" source="FLgsJ0YSuYzED8wDsR7t-31" target="FLgsJ0YSuYzED8wDsR7t-32">
          <mxGeometry relative="1" as="geometry" />
        </mxCell>
        <mxCell id="FLgsJ0YSuYzED8wDsR7t-31" value="*maxAge&amp;nbsp; = age[0]" style="rounded=1;whiteSpace=wrap;html=1;absoluteArcSize=1;arcSize=14;strokeWidth=2;" vertex="1" parent="1">
          <mxGeometry x="35" y="180" width="180" height="40" as="geometry" />
        </mxCell>
        <mxCell id="FLgsJ0YSuYzED8wDsR7t-36" style="edgeStyle=orthogonalEdgeStyle;rounded=0;orthogonalLoop=1;jettySize=auto;html=1;entryX=0.5;entryY=0;entryDx=0;entryDy=0;" edge="1" parent="1" source="FLgsJ0YSuYzED8wDsR7t-32" target="FLgsJ0YSuYzED8wDsR7t-33">
          <mxGeometry relative="1" as="geometry" />
        </mxCell>
        <mxCell id="FLgsJ0YSuYzED8wDsR7t-32" value="for ( i = 1, i &amp;lt; size, i++)" style="rhombus;whiteSpace=wrap;html=1;" vertex="1" parent="1">
          <mxGeometry x="37.5" y="290" width="175" height="90" as="geometry" />
        </mxCell>
        <mxCell id="FLgsJ0YSuYzED8wDsR7t-38" style="edgeStyle=orthogonalEdgeStyle;rounded=0;orthogonalLoop=1;jettySize=auto;html=1;entryX=0.5;entryY=0;entryDx=0;entryDy=0;" edge="1" parent="1" source="FLgsJ0YSuYzED8wDsR7t-33" target="FLgsJ0YSuYzED8wDsR7t-37">
          <mxGeometry relative="1" as="geometry" />
        </mxCell>
        <mxCell id="FLgsJ0YSuYzED8wDsR7t-33" value="if ( age[i] &amp;gt; *maxAge)" style="rhombus;whiteSpace=wrap;html=1;" vertex="1" parent="1">
          <mxGeometry x="215" y="390" width="175" height="90" as="geometry" />
        </mxCell>
        <mxCell id="FLgsJ0YSuYzED8wDsR7t-39" style="edgeStyle=orthogonalEdgeStyle;rounded=0;orthogonalLoop=1;jettySize=auto;html=1;entryX=1;entryY=1;entryDx=0;entryDy=0;" edge="1" parent="1" source="FLgsJ0YSuYzED8wDsR7t-37" target="FLgsJ0YSuYzED8wDsR7t-32">
          <mxGeometry relative="1" as="geometry" />
        </mxCell>
        <mxCell id="FLgsJ0YSuYzED8wDsR7t-37" value="*maxAge = age[i]" style="rounded=1;whiteSpace=wrap;html=1;absoluteArcSize=1;arcSize=14;strokeWidth=2;" vertex="1" parent="1">
          <mxGeometry x="215" y="510" width="180" height="40" as="geometry" />
        </mxCell>
        <mxCell id="FLgsJ0YSuYzED8wDsR7t-40" value="&lt;font style=&quot;font-size: 24px;&quot;&gt;end&lt;/font&gt;" style="strokeWidth=2;html=1;shape=mxgraph.flowchart.start_1;whiteSpace=wrap;" vertex="1" parent="1">
          <mxGeometry x="75" y="560" width="100" height="60" as="geometry" />
        </mxCell>
        <mxCell id="FLgsJ0YSuYzED8wDsR7t-41" style="edgeStyle=orthogonalEdgeStyle;rounded=0;orthogonalLoop=1;jettySize=auto;html=1;entryX=0.5;entryY=0;entryDx=0;entryDy=0;entryPerimeter=0;" edge="1" parent="1" source="FLgsJ0YSuYzED8wDsR7t-32" target="FLgsJ0YSuYzED8wDsR7t-40">
          <mxGeometry relative="1" as="geometry" />
        </mxCell>
      </root>
    </mxGraphModel>
  </diagram>
</mxfile>
